<svg xmlns="http://www.w3.org/2000/svg" xmlns:xlink="http://www.w3.org/1999/xlink" version="1.1" width="695.89pt" height="162.244pt" viewBox="0 0 695.89 162.244">
<defs>
<clipPath id="clip_0">
<path transform="matrix(1,0,0,-1,0,162.244)" d="M0 0H695.89V162.244H0Z"/>
</clipPath>
</defs>
<g clip-path="url(#clip_0)">
<path transform="matrix(1,0,0,-1,144.488,80.44691)" stroke-width="9" stroke-linecap="butt" stroke-miterlimit="10" stroke-linejoin="miter" fill="none" stroke="#163862" d="M0 0C0-34.045-27.599-61.644-61.644-61.644-95.688-61.644-123.288-34.045-123.288 0-123.288 34.045-95.688 61.644-61.644 61.644-27.599 61.644 0 34.045 0 0Z"/>
<path transform="matrix(1,0,0,-1,0,162.244)" d="M115.7673 106.299C115.7673 88.116 101.0273 73.376 82.8443 73.376 64.6623 73.376 49.9213 88.116 49.9213 106.299 49.9213 124.482 64.6623 139.222 82.8443 139.222 101.0273 139.222 115.7673 124.482 115.7673 106.299" fill="#163862"/>
<path transform="matrix(1,0,0,-1,0,162.244)" d="M223.5666 68.5109 201.8946 117.0149 180.2226 68.5109ZM227.0496 60.7709H176.7396L165.9036 36.6479H155.9706L197.2506 126.9479H206.6676L247.9476 36.6479H237.8856Z" fill="#163862"/>
<path transform="matrix(1,0,0,-1,0,162.244)" d="M277.9391 41.8078C270.7571 45.7618 265.1241 51.2448 261.0401 58.2548 256.9551 65.2638 254.9131 73.1108 254.9131 81.7978 254.9131 90.4828 256.9551 98.3298 261.0401 105.3398 265.1241 112.3488 270.7801 117.8308 278.0031 121.7878 285.2281 125.7428 293.3101 127.7218 302.2551 127.7218 308.9631 127.7218 315.1561 126.6028 320.8321 124.3678 326.5081 122.1298 331.3231 118.8628 335.2801 114.5638L329.2171 108.5008C322.1651 115.6378 313.2631 119.2078 302.5141 119.2078 295.3741 119.2078 288.8821 117.5728 283.0351 114.3058 277.1851 111.0368 272.6061 106.5658 269.2961 100.8898 265.9841 95.2138 264.3301 88.8478 264.3301 81.7978 264.3301 74.7458 265.9841 68.3818 269.2961 62.7048 272.6061 57.0298 277.1851 52.5568 283.0351 49.2888 288.8821 46.0208 295.3741 44.3878 302.5141 44.3878 313.3501 44.3878 322.2511 47.9988 329.2171 55.2238L335.2801 49.1608C331.3231 44.8598 326.4861 41.5698 320.7671 39.2918 315.0471 37.0128 308.8351 35.8728 302.1261 35.8728 293.1811 35.8728 285.1191 37.8508 277.9391 41.8078" fill="#163862"/>
<path transform="matrix(1,0,0,-1,0,162.244)" d="M419.5153 44.9035V36.6475H355.6613V126.9475H417.5813V118.6915H365.2073V86.5705H411.9063V78.4435H365.2073V44.9035Z" fill="#163862"/>
<path transform="matrix(1,0,0,-1,0,162.244)" d="M517.4265 126.9475V36.6475H509.5575L451.5075 109.9195V36.6475H441.9615V126.9475H449.8305L508.0095 53.6765V126.9475Z" fill="#163862"/>
<path transform="matrix(1,0,0,-1,0,162.244)" d="M583.0856 44.9035C590.9966 44.9035 597.9206 46.4715 603.8546 49.6125 609.7886 52.7505 614.3886 57.0935 617.6576 62.6405 620.9246 68.1875 622.5596 74.5735 622.5596 81.7985 622.5596 89.0215 620.9246 95.4075 617.6576 100.9545 614.3886 106.5015 609.7886 110.8425 603.8546 113.9835 597.9206 117.1215 590.9966 118.6915 583.0856 118.6915H556.3826V44.9035ZM546.8366 126.9475H583.6016C593.1476 126.9475 601.5746 125.0325 608.8856 121.2075 616.1936 117.3795 621.8696 112.0485 625.9136 105.2115 629.9546 98.3745 631.9766 90.5695 631.9766 81.7985 631.9766 73.0255 629.9546 65.2205 625.9136 58.3835 621.8696 51.5475 616.1936 46.2145 608.8856 42.3875 601.5746 38.5605 593.1476 36.6475 583.6016 36.6475H546.8366Z" fill="#163862"/>
<path transform="matrix(1,0,0,-1,0,162.244)" d="M653.389 36.647H662.935V126.94701H653.389Z" fill="#163862"/>
<path transform="matrix(1,0,0,-1,0,162.244)" d="M670.6735 125.8586H666.4915V126.9476H676.1135V125.8586H671.9315V115.0466H670.6735Z" fill="#163862"/>
<path transform="matrix(1,0,0,-1,0,162.244)" d="M690.4782 126.9475V115.0475H689.2712V124.5665L684.5962 116.5595H684.0012L679.3262 124.5155V115.0475H678.1202V126.9475H679.1562L684.3242 118.1245 689.4412 126.9475Z" fill="#163862"/>
</g>
</svg>
